<svg width="450" height="115" viewBox="0 0 450 115" fill="none" xmlns="http://www.w3.org/2000/svg">
<path d="M4.96578 58V13.9287H11.9179V51.8548H35.5674V58H4.96578ZM53.3191 13.9287H59.8988L77.0307 58H69.7062L65.0508 46.02H48.043L43.4496 58H36.063L53.3191 13.9287ZM63.6852 40.868L56.609 21.5636L49.2844 40.868H63.6852ZM88.8124 26.8397V58H81.8603V13.9287H87.5709L112.524 45.7718V13.9907H119.538V58H113.455L88.8124 26.8397ZM141.549 13.9287H148.129L165.261 58H157.936L153.281 46.02H136.273L131.68 58H124.293L141.549 13.9287ZM151.915 40.868L144.839 21.5636L137.514 40.868H151.915ZM217.502 46.6408C217.502 48.9995 216.882 51.0272 215.64 52.7239C214.399 54.4205 212.743 55.724 210.674 56.6344C208.647 57.5448 206.391 58 203.908 58H182.866V13.9287H205.584C207.653 13.9287 209.433 14.4873 210.923 15.6046C212.412 16.6805 213.571 18.0875 214.399 19.8255C215.226 21.5636 215.64 23.343 215.64 25.1638C215.64 27.3156 215.081 29.3433 213.964 31.2468C212.888 33.109 211.336 34.4953 209.309 35.4057C211.792 36.1506 213.778 37.5161 215.268 39.5025C216.757 41.4474 217.502 43.8268 217.502 46.6408ZM189.818 19.9497V32.9228H202.605C204.343 32.9228 205.791 32.3228 206.95 31.1227C208.109 29.8812 208.688 28.3294 208.688 26.4673C208.688 24.5637 208.15 23.0119 207.074 21.8119C205.998 20.5704 204.633 19.9497 202.977 19.9497H189.818ZM210.364 45.3373C210.364 43.5165 209.785 41.9233 208.626 40.5577C207.509 39.1921 206.081 38.5093 204.343 38.5093H189.818V51.979H203.908C205.729 51.979 207.26 51.3376 208.502 50.0547C209.743 48.7305 210.364 47.158 210.364 45.3373ZM254.361 51.8548V58H224.132V13.9287H253.802V20.0738H231.084V32.6124H250.761V38.3852H231.084V51.8548H254.361ZM273.637 13.9287H280.217L297.349 58H290.024L285.369 46.02H268.361L263.767 58H256.381L273.637 13.9287ZM284.003 40.868L276.927 21.5636L269.602 40.868H284.003ZM318.733 58.3104C315.257 58.3104 312.298 57.7103 309.857 56.5103C307.415 55.3102 305.45 53.6756 303.96 51.6066C302.47 49.4961 301.394 47.1373 300.732 44.5303C300.07 41.8819 299.739 39.13 299.739 36.2747V13.9287H306.691V36.2747C306.691 38.3024 306.898 40.268 307.312 42.1716C307.725 44.0337 308.388 45.7097 309.298 47.1994C310.208 48.6892 311.429 49.8685 312.96 50.7375C314.533 51.6066 316.457 52.0411 318.733 52.0411C321.05 52.0411 322.975 51.6066 324.506 50.7375C326.078 49.8271 327.32 48.6271 328.23 47.1373C329.14 45.6062 329.782 43.9096 330.154 42.0474C330.568 40.1853 330.775 38.261 330.775 36.2747V13.9287H337.789V36.2747C337.789 39.2955 337.417 42.1302 336.672 44.7786C335.968 47.427 334.851 49.7651 333.32 51.7928C331.83 53.8205 329.865 55.4137 327.423 56.5723C325.023 57.731 322.126 58.3104 318.733 58.3104ZM378.754 20.0738H364.105V58H357.091V20.0738H342.38V13.9287H378.754V20.0738ZM387.271 13.9287L399.437 35.8402L411.727 13.9287H419.362L402.913 42.2336V58H395.961V42.1095L379.636 13.9287H387.271Z" fill="#131313"/>
<path d="M42.2695 105.208V107.746H29.7835V89.5426H42.0387V92.0808H32.655V97.2598H40.7824V99.6442H32.655V105.208H42.2695ZM49.6165 108.002C48.4884 108.002 47.4202 107.814 46.4117 107.438C45.4033 107.062 44.5401 106.515 43.8222 105.797L44.8734 103.9C45.6426 104.584 46.4117 105.08 47.1809 105.387C47.95 105.695 48.7277 105.849 49.514 105.849C50.3002 105.849 50.9412 105.703 51.4369 105.413C51.9325 105.105 52.1804 104.661 52.1804 104.08C52.1804 103.669 52.0522 103.353 51.7958 103.131C51.5394 102.909 51.1634 102.729 50.6677 102.593C50.1891 102.456 49.608 102.285 48.9243 102.08C47.9671 101.789 47.1638 101.49 46.5143 101.182C45.8648 100.858 45.3776 100.465 45.0529 100.003C44.7281 99.5416 44.5657 98.9519 44.5657 98.2341C44.5657 96.935 45.0529 95.9266 46.0271 95.2087C47.0014 94.4737 48.2748 94.1063 49.8473 94.1063C50.8215 94.1063 51.7189 94.2601 52.5393 94.5677C53.3769 94.8583 54.1118 95.3198 54.7442 95.9522L53.5392 97.8238C52.3769 96.7641 51.095 96.2343 49.6934 96.2343C49.0781 96.2343 48.5055 96.3539 47.9757 96.5932C47.4629 96.8325 47.2065 97.2769 47.2065 97.9264C47.2065 98.4734 47.4373 98.8665 47.8987 99.1058C48.3602 99.3451 49.0439 99.6014 49.9498 99.8749C50.9754 100.183 51.8556 100.49 52.5906 100.798C53.3427 101.088 53.9153 101.473 54.3084 101.952C54.7186 102.413 54.9237 103.054 54.9237 103.875C54.9237 105.174 54.4366 106.191 53.4623 106.926C52.488 107.643 51.2061 108.002 49.6165 108.002ZM64.8775 107.054C64.5185 107.225 64.0229 107.421 63.3904 107.643C62.758 107.849 62.0829 107.951 61.365 107.951C60.4762 107.951 59.707 107.712 59.0575 107.233C58.4251 106.755 58.1089 105.977 58.1089 104.9V96.5163H56.3398V94.337H58.1089V89.9272H60.9291V94.337H63.8519V96.5163H60.9291V104.003C60.9633 104.481 61.1086 104.832 61.365 105.054C61.6385 105.259 61.9718 105.362 62.3649 105.362C62.758 105.362 63.1341 105.293 63.493 105.156C63.8519 105.02 64.1169 104.909 64.2878 104.823L64.8775 107.054ZM72.7319 108.002C71.3474 108.002 70.1338 107.686 69.0912 107.054C68.0486 106.421 67.2367 105.584 66.6556 104.541C66.0744 103.481 65.7838 102.328 65.7838 101.08C65.7838 99.8151 66.0744 98.6528 66.6556 97.5931C67.2367 96.5334 68.0486 95.6873 69.0912 95.0549C70.1338 94.4225 71.356 94.1063 72.7575 94.1063C74.1591 94.1063 75.3727 94.431 76.3982 95.0805C77.4237 95.7129 78.21 96.5505 78.7569 97.5931C79.321 98.6357 79.603 99.7553 79.603 100.952C79.603 101.379 79.5774 101.721 79.5261 101.977H68.7836C68.8348 102.764 69.0485 103.456 69.4245 104.054C69.8176 104.635 70.3048 105.097 70.8859 105.438C71.4841 105.763 72.1337 105.926 72.8344 105.926C73.5865 105.926 74.2958 105.738 74.9624 105.362C75.629 104.986 76.0905 104.49 76.3469 103.875L78.7569 104.567C78.2955 105.575 77.5263 106.404 76.4495 107.054C75.3898 107.686 74.1506 108.002 72.7319 108.002ZM68.7066 100.106H76.8084C76.74 99.3365 76.5178 98.6614 76.1418 98.0802C75.7658 97.482 75.2787 97.0205 74.6804 96.6957C74.0993 96.3539 73.4498 96.183 72.7319 96.183C72.0311 96.183 71.3816 96.3539 70.7834 96.6957C70.2022 97.0205 69.7236 97.482 69.3476 98.0802C68.9716 98.6614 68.7579 99.3365 68.7066 100.106ZM89.2391 107.054C88.8802 107.225 88.3845 107.421 87.7521 107.643C87.1197 107.849 86.4445 107.951 85.7266 107.951C84.8378 107.951 84.0687 107.712 83.4192 107.233C82.7867 106.755 82.4705 105.977 82.4705 104.9V96.5163H80.7015V94.337H82.4705V89.9272H85.2908V94.337H88.2136V96.5163H85.2908V104.003C85.325 104.481 85.4702 104.832 85.7266 105.054C86.0001 105.259 86.3334 105.362 86.7265 105.362C87.1197 105.362 87.4957 105.293 87.8546 105.156C88.2136 105.02 88.4785 104.909 88.6494 104.823L89.2391 107.054ZM91.1924 92.1321V89.0298H94.0127V92.1321H91.1924ZM91.1924 107.746V94.337H94.0127V107.746H91.1924ZM103.478 108.002C102.094 108.002 100.88 107.686 99.8374 107.054C98.7948 106.404 97.9829 105.55 97.4018 104.49C96.8206 103.43 96.5301 102.276 96.5301 101.029C96.5301 99.7809 96.8121 98.6357 97.3761 97.5931C97.9573 96.5334 98.7606 95.6873 99.7862 95.0549C100.829 94.4225 102.059 94.1063 103.478 94.1063C104.863 94.1063 106.051 94.4139 107.042 95.0292C108.05 95.6275 108.802 96.4308 109.298 97.4393L106.555 98.311C106.247 97.7469 105.811 97.3111 105.247 97.0034C104.7 96.6787 104.093 96.5163 103.427 96.5163C102.675 96.5163 101.991 96.7128 101.376 97.106C100.778 97.482 100.299 98.0119 99.94 98.6956C99.5982 99.3792 99.4272 100.157 99.4272 101.029C99.4272 101.9 99.6067 102.678 99.9656 103.362C100.342 104.045 100.829 104.592 101.427 105.003C102.042 105.396 102.718 105.592 103.452 105.592C104.136 105.592 104.786 105.413 105.401 105.054C106.016 104.695 106.427 104.259 106.632 103.746L109.401 104.567C108.956 105.575 108.213 106.404 107.17 107.054C106.127 107.686 104.897 108.002 103.478 108.002ZM110.749 103.823C110.749 102.969 110.988 102.225 111.467 101.593C111.946 100.943 112.612 100.448 113.467 100.106C114.338 99.7467 115.338 99.5673 116.466 99.5673C117.065 99.5673 117.671 99.6185 118.287 99.7211C118.919 99.8066 119.475 99.9348 119.953 100.106V99.2596C119.953 98.3195 119.671 97.5846 119.107 97.0547C118.543 96.5248 117.731 96.2599 116.672 96.2599C115.937 96.2599 115.227 96.3881 114.544 96.6445C113.86 96.9009 113.151 97.2769 112.416 97.7726L111.467 95.8753C112.356 95.2942 113.245 94.8583 114.133 94.5677C115.039 94.2601 115.988 94.1063 116.979 94.1063C118.774 94.1063 120.184 94.5848 121.21 95.542C122.252 96.4821 122.774 97.8238 122.774 99.5673V104.567C122.774 104.892 122.825 105.122 122.927 105.259C123.047 105.396 123.244 105.473 123.517 105.49V107.746C123.261 107.797 123.03 107.831 122.825 107.849C122.62 107.866 122.449 107.874 122.312 107.874C121.697 107.874 121.235 107.729 120.928 107.438C120.637 107.131 120.466 106.789 120.415 106.413L120.338 105.644C119.757 106.396 119.013 106.977 118.107 107.387C117.201 107.797 116.287 108.002 115.364 108.002C114.475 108.002 113.68 107.823 112.98 107.464C112.279 107.088 111.732 106.584 111.339 105.951C110.946 105.319 110.749 104.61 110.749 103.823ZM119.287 104.644C119.731 104.199 119.953 103.781 119.953 103.387V101.849C118.945 101.473 117.919 101.285 116.877 101.285C115.851 101.285 115.014 101.499 114.364 101.926C113.732 102.336 113.415 102.892 113.415 103.593C113.415 104.174 113.646 104.712 114.108 105.208C114.586 105.686 115.27 105.926 116.159 105.926C116.757 105.926 117.338 105.806 117.902 105.567C118.466 105.327 118.928 105.02 119.287 104.644ZM138.553 107.746L136.912 106.003C136.16 106.635 135.331 107.131 134.425 107.49C133.536 107.831 132.596 108.002 131.605 108.002C130.425 108.002 129.383 107.772 128.477 107.31C127.571 106.832 126.862 106.199 126.349 105.413C125.853 104.627 125.605 103.746 125.605 102.772C125.605 101.986 125.759 101.285 126.067 100.67C126.392 100.037 126.81 99.4733 127.323 98.9776C127.836 98.4648 128.383 98.0033 128.964 97.5931C128.195 96.7214 127.648 95.9864 127.323 95.3882C127.016 94.7899 126.862 94.1746 126.862 93.5422C126.862 92.7047 127.067 91.9697 127.477 91.3373C127.904 90.7049 128.485 90.2092 129.22 89.8503C129.955 89.4913 130.776 89.3118 131.682 89.3118C132.519 89.3118 133.288 89.4657 133.989 89.7733C134.69 90.0639 135.254 90.4998 135.681 91.0809C136.109 91.662 136.322 92.3628 136.322 93.1833C136.322 94.1917 135.989 95.072 135.322 95.824C134.673 96.559 133.861 97.2598 132.887 97.9264L136.989 102.208C137.279 101.627 137.502 100.994 137.656 100.311C137.826 99.61 137.912 98.8665 137.912 98.0802H140.219C140.219 99.2254 140.074 100.294 139.784 101.285C139.51 102.259 139.125 103.148 138.63 103.951L142.27 107.746H138.553ZM129.451 93.4653C129.451 93.8071 129.562 94.1575 129.784 94.5165C130.024 94.8583 130.494 95.3967 131.195 96.1317C131.981 95.636 132.596 95.1745 133.041 94.7472C133.502 94.3028 133.733 93.7986 133.733 93.2345C133.733 92.6876 133.536 92.2517 133.143 91.927C132.767 91.5851 132.28 91.4142 131.682 91.4142C131.032 91.4142 130.494 91.6193 130.067 92.0295C129.656 92.4227 129.451 92.9012 129.451 93.4653ZM128.323 102.798C128.323 103.396 128.485 103.917 128.81 104.362C129.135 104.806 129.571 105.156 130.118 105.413C130.665 105.652 131.263 105.772 131.912 105.772C132.545 105.772 133.152 105.652 133.733 105.413C134.331 105.174 134.878 104.832 135.374 104.387L130.656 99.3878C129.955 99.8835 129.391 100.405 128.964 100.952C128.537 101.499 128.323 102.114 128.323 102.798ZM164.558 107.746H161.738V100.234C161.738 99.0032 161.532 98.0973 161.122 97.5162C160.712 96.9179 160.114 96.6188 159.328 96.6188C158.541 96.6188 157.806 96.9179 157.123 97.5162C156.456 98.0973 155.986 98.8579 155.712 99.798V107.746H152.892V100.234C152.892 98.969 152.687 98.0546 152.277 97.4905C151.867 96.9094 151.277 96.6188 150.508 96.6188C149.722 96.6188 148.987 96.9094 148.303 97.4905C147.636 98.0717 147.158 98.8323 146.867 99.7724V107.746H144.047V94.337H146.611V97.029C147.124 96.089 147.816 95.3711 148.688 94.8754C149.559 94.3626 150.551 94.1063 151.662 94.1063C152.773 94.1063 153.644 94.3968 154.277 94.978C154.926 95.5591 155.328 96.2855 155.482 97.1572C156.644 95.1232 158.328 94.1063 160.533 94.1063C161.592 94.1063 162.413 94.3626 162.994 94.8754C163.575 95.3711 163.977 96.0377 164.199 96.8752C164.438 97.6957 164.558 98.593 164.558 99.5673V107.746ZM166.833 103.823C166.833 102.969 167.073 102.225 167.551 101.593C168.03 100.943 168.696 100.448 169.551 100.106C170.423 99.7467 171.423 99.5673 172.551 99.5673C173.149 99.5673 173.756 99.6185 174.371 99.7211C175.004 99.8066 175.559 99.9348 176.038 100.106V99.2596C176.038 98.3195 175.756 97.5846 175.192 97.0547C174.628 96.5248 173.816 96.2599 172.756 96.2599C172.021 96.2599 171.312 96.3881 170.628 96.6445C169.944 96.9009 169.235 97.2769 168.5 97.7726L167.551 95.8753C168.44 95.2942 169.329 94.8583 170.218 94.5677C171.124 94.2601 172.072 94.1063 173.064 94.1063C174.858 94.1063 176.268 94.5848 177.294 95.542C178.337 96.4821 178.858 97.8238 178.858 99.5673V104.567C178.858 104.892 178.909 105.122 179.012 105.259C179.131 105.396 179.328 105.473 179.601 105.49V107.746C179.345 107.797 179.114 107.831 178.909 107.849C178.704 107.866 178.533 107.874 178.396 107.874C177.781 107.874 177.32 107.729 177.012 107.438C176.721 107.131 176.55 106.789 176.499 106.413L176.422 105.644C175.841 106.396 175.098 106.977 174.192 107.387C173.286 107.797 172.371 108.002 171.448 108.002C170.56 108.002 169.765 107.823 169.064 107.464C168.363 107.088 167.816 106.584 167.423 105.951C167.03 105.319 166.833 104.61 166.833 103.823ZM175.371 104.644C175.815 104.199 176.038 103.781 176.038 103.387V101.849C175.029 101.473 174.004 101.285 172.961 101.285C171.935 101.285 171.098 101.499 170.448 101.926C169.816 102.336 169.5 102.892 169.5 103.593C169.5 104.174 169.731 104.712 170.192 105.208C170.671 105.686 171.354 105.926 172.243 105.926C172.841 105.926 173.422 105.806 173.987 105.567C174.551 105.327 175.012 105.02 175.371 104.644ZM191.612 107.746L187.305 101.567L185.1 103.669V107.746H182.279V89.0298H185.1V100.824L191.304 94.3626H194.33L189.125 99.9775L194.612 107.746H191.612ZM201.701 108.002C200.316 108.002 199.103 107.686 198.06 107.054C197.018 106.421 196.206 105.584 195.624 104.541C195.043 103.481 194.753 102.328 194.753 101.08C194.753 99.8151 195.043 98.6528 195.624 97.5931C196.206 96.5334 197.018 95.6873 198.06 95.0549C199.103 94.4225 200.325 94.1063 201.726 94.1063C203.128 94.1063 204.342 94.431 205.367 95.0805C206.393 95.7129 207.179 96.5505 207.726 97.5931C208.29 98.6357 208.572 99.7553 208.572 100.952C208.572 101.379 208.546 101.721 208.495 101.977H197.752C197.804 102.764 198.017 103.456 198.393 104.054C198.787 104.635 199.274 105.097 199.855 105.438C200.453 105.763 201.103 105.926 201.803 105.926C202.555 105.926 203.265 105.738 203.931 105.362C204.598 104.986 205.059 104.49 205.316 103.875L207.726 104.567C207.264 105.575 206.495 106.404 205.418 107.054C204.359 107.686 203.119 108.002 201.701 108.002ZM197.676 100.106H205.777C205.709 99.3365 205.487 98.6614 205.111 98.0802C204.735 97.482 204.248 97.0205 203.649 96.6957C203.068 96.3539 202.419 96.183 201.701 96.183C201 96.183 200.351 96.3539 199.752 96.6957C199.171 97.0205 198.693 97.482 198.317 98.0802C197.941 98.6614 197.727 99.3365 197.676 100.106ZM210.744 102.541V94.337H213.564V101.977C213.564 104.387 214.419 105.592 216.128 105.592C216.932 105.592 217.692 105.344 218.41 104.849C219.128 104.336 219.684 103.618 220.077 102.695V94.337H222.897V104.567C222.897 104.892 222.957 105.122 223.076 105.259C223.196 105.396 223.393 105.473 223.666 105.49V107.746C223.375 107.797 223.136 107.831 222.948 107.849C222.76 107.866 222.581 107.874 222.41 107.874C221.897 107.874 221.47 107.737 221.128 107.464C220.786 107.19 220.589 106.823 220.538 106.361L220.487 105.028C219.889 106.003 219.111 106.746 218.154 107.259C217.197 107.755 216.145 108.002 215 108.002C213.599 108.002 212.539 107.541 211.821 106.618C211.103 105.695 210.744 104.336 210.744 102.541ZM234.111 108.002C233.034 108.002 232.085 107.746 231.265 107.233C230.444 106.72 229.795 106.054 229.316 105.233V113.207H226.496V94.337H228.983V96.747C229.496 95.9437 230.162 95.3027 230.983 94.8241C231.803 94.3455 232.718 94.1063 233.726 94.1063C234.957 94.1063 236.042 94.431 236.982 95.0805C237.939 95.7129 238.691 96.559 239.238 97.6187C239.785 98.6614 240.059 99.798 240.059 101.029C240.059 102.328 239.802 103.507 239.29 104.567C238.777 105.609 238.076 106.447 237.187 107.079C236.298 107.695 235.273 108.002 234.111 108.002ZM233.188 105.592C233.991 105.592 234.683 105.379 235.264 104.951C235.863 104.507 236.324 103.943 236.649 103.259C236.991 102.558 237.162 101.815 237.162 101.029C237.162 100.208 236.974 99.4562 236.598 98.7725C236.239 98.0888 235.743 97.5418 235.11 97.1316C234.495 96.7214 233.786 96.5163 232.982 96.5163C232.504 96.5163 232 96.6359 231.47 96.8752C230.957 97.1145 230.504 97.4307 230.111 97.8238C229.718 98.217 229.453 98.6614 229.316 99.157V102.67C229.658 103.49 230.179 104.182 230.88 104.746C231.598 105.31 232.367 105.592 233.188 105.592ZM256.544 108.002C255.467 108.002 254.519 107.746 253.698 107.233C252.878 106.72 252.228 106.054 251.75 105.233V113.207H248.93V94.337H251.417V96.747C251.929 95.9437 252.596 95.3027 253.416 94.8241C254.237 94.3455 255.151 94.1063 256.16 94.1063C257.39 94.1063 258.476 94.431 259.416 95.0805C260.373 95.7129 261.125 96.559 261.672 97.6187C262.219 98.6614 262.492 99.798 262.492 101.029C262.492 102.328 262.236 103.507 261.723 104.567C261.211 105.609 260.51 106.447 259.621 107.079C258.732 107.695 257.707 108.002 256.544 108.002ZM255.621 105.592C256.425 105.592 257.117 105.379 257.698 104.951C258.296 104.507 258.758 103.943 259.083 103.259C259.424 102.558 259.595 101.815 259.595 101.029C259.595 100.208 259.407 99.4562 259.031 98.7725C258.672 98.0888 258.177 97.5418 257.544 97.1316C256.929 96.7214 256.22 96.5163 255.416 96.5163C254.938 96.5163 254.433 96.6359 253.904 96.8752C253.391 97.1145 252.938 97.4307 252.545 97.8238C252.152 98.217 251.887 98.6614 251.75 99.157V102.67C252.092 103.49 252.613 104.182 253.314 104.746C254.032 105.31 254.801 105.592 255.621 105.592ZM271.105 108.002C269.721 108.002 268.507 107.686 267.465 107.054C266.422 106.421 265.61 105.584 265.029 104.541C264.448 103.481 264.157 102.328 264.157 101.08C264.157 99.8151 264.448 98.6528 265.029 97.5931C265.61 96.5334 266.422 95.6873 267.465 95.0549C268.507 94.4225 269.729 94.1063 271.131 94.1063C272.532 94.1063 273.746 94.431 274.771 95.0805C275.797 95.7129 276.583 96.5505 277.13 97.5931C277.694 98.6357 277.976 99.7553 277.976 100.952C277.976 101.379 277.951 101.721 277.899 101.977H267.157C267.208 102.764 267.422 103.456 267.798 104.054C268.191 104.635 268.678 105.097 269.259 105.438C269.857 105.763 270.507 105.926 271.208 105.926C271.96 105.926 272.669 105.738 273.336 105.362C274.002 104.986 274.464 104.49 274.72 103.875L277.13 104.567C276.669 105.575 275.9 106.404 274.823 107.054C273.763 107.686 272.524 108.002 271.105 108.002ZM267.08 100.106H275.182C275.113 99.3365 274.891 98.6614 274.515 98.0802C274.139 97.482 273.652 97.0205 273.054 96.6957C272.473 96.3539 271.823 96.183 271.105 96.183C270.404 96.183 269.755 96.3539 269.157 96.6957C268.576 97.0205 268.097 97.482 267.721 98.0802C267.345 98.6614 267.131 99.3365 267.08 100.106ZM287.815 96.7727C286.721 96.8068 285.746 97.0632 284.892 97.5418C284.054 98.0033 283.456 98.6699 283.097 99.5416V107.746H280.277V94.337H282.892V97.3367C283.353 96.4137 283.96 95.6788 284.712 95.1318C285.464 94.5677 286.259 94.2601 287.097 94.2088C287.25 94.2088 287.387 94.2088 287.507 94.2088C287.627 94.2088 287.729 94.2174 287.815 94.2344V96.7727ZM310.377 107.746H307.557V100.234C307.557 99.0032 307.352 98.0973 306.941 97.5162C306.531 96.9179 305.933 96.6188 305.147 96.6188C304.361 96.6188 303.626 96.9179 302.942 97.5162C302.275 98.0973 301.805 98.8579 301.532 99.798V107.746H298.711V100.234C298.711 98.969 298.506 98.0546 298.096 97.4905C297.686 96.9094 297.096 96.6188 296.327 96.6188C295.541 96.6188 294.806 96.9094 294.122 97.4905C293.456 98.0717 292.977 98.8323 292.686 99.7724V107.746H289.866V94.337H292.43V97.029C292.943 96.089 293.635 95.3711 294.507 94.8754C295.378 94.3626 296.37 94.1063 297.481 94.1063C298.592 94.1063 299.464 94.3968 300.096 94.978C300.745 95.5591 301.147 96.2855 301.301 97.1572C302.463 95.1232 304.147 94.1063 306.352 94.1063C307.412 94.1063 308.232 94.3626 308.813 94.8754C309.394 95.3711 309.796 96.0377 310.018 96.8752C310.257 97.6957 310.377 98.593 310.377 99.5673V107.746ZM312.653 103.823C312.653 102.969 312.892 102.225 313.371 101.593C313.849 100.943 314.516 100.448 315.37 100.106C316.242 99.7467 317.242 99.5673 318.37 99.5673C318.968 99.5673 319.575 99.6185 320.19 99.7211C320.823 99.8066 321.378 99.9348 321.857 100.106V99.2596C321.857 98.3195 321.575 97.5846 321.011 97.0547C320.447 96.5248 319.635 96.2599 318.575 96.2599C317.84 96.2599 317.131 96.3881 316.447 96.6445C315.763 96.9009 315.054 97.2769 314.319 97.7726L313.371 95.8753C314.259 95.2942 315.148 94.8583 316.037 94.5677C316.943 94.2601 317.891 94.1063 318.883 94.1063C320.678 94.1063 322.088 94.5848 323.113 95.542C324.156 96.4821 324.677 97.8238 324.677 99.5673V104.567C324.677 104.892 324.728 105.122 324.831 105.259C324.951 105.396 325.147 105.473 325.421 105.49V107.746C325.164 107.797 324.934 107.831 324.728 107.849C324.523 107.866 324.352 107.874 324.216 107.874C323.6 107.874 323.139 107.729 322.831 107.438C322.541 107.131 322.37 106.789 322.318 106.413L322.241 105.644C321.66 106.396 320.917 106.977 320.011 107.387C319.105 107.797 318.191 108.002 317.268 108.002C316.379 108.002 315.584 107.823 314.883 107.464C314.182 107.088 313.635 106.584 313.242 105.951C312.849 105.319 312.653 104.61 312.653 103.823ZM321.19 104.644C321.635 104.199 321.857 103.781 321.857 103.387V101.849C320.848 101.473 319.823 101.285 318.78 101.285C317.755 101.285 316.917 101.499 316.268 101.926C315.635 102.336 315.319 102.892 315.319 103.593C315.319 104.174 315.55 104.712 316.011 105.208C316.49 105.686 317.174 105.926 318.062 105.926C318.661 105.926 319.242 105.806 319.806 105.567C320.37 105.327 320.831 105.02 321.19 104.644ZM340.123 107.746H337.303V100.234C337.303 98.969 337.098 98.0546 336.688 97.4905C336.294 96.9094 335.705 96.6188 334.919 96.6188C334.372 96.6188 333.825 96.7556 333.278 97.029C332.748 97.3025 332.269 97.6786 331.842 98.1571C331.415 98.6357 331.107 99.1741 330.919 99.7724V107.746H328.099V94.337H330.663V97.029C331.175 96.1402 331.919 95.4309 332.893 94.901C333.867 94.3712 334.944 94.1063 336.124 94.1063C337.183 94.1063 338.004 94.3626 338.585 94.8754C339.166 95.3711 339.568 96.0291 339.79 96.8496C340.012 97.67 340.123 98.5759 340.123 99.5673V107.746ZM349.473 108.002C348.089 108.002 346.875 107.686 345.832 107.054C344.79 106.421 343.978 105.584 343.397 104.541C342.816 103.481 342.525 102.328 342.525 101.08C342.525 99.8151 342.816 98.6528 343.397 97.5931C343.978 96.5334 344.79 95.6873 345.832 95.0549C346.875 94.4225 348.097 94.1063 349.499 94.1063C350.9 94.1063 352.114 94.431 353.139 95.0805C354.165 95.7129 354.951 96.5505 355.498 97.5931C356.062 98.6357 356.344 99.7553 356.344 100.952C356.344 101.379 356.319 101.721 356.267 101.977H345.525C345.576 102.764 345.79 103.456 346.166 104.054C346.559 104.635 347.046 105.097 347.627 105.438C348.225 105.763 348.875 105.926 349.576 105.926C350.328 105.926 351.037 105.738 351.704 105.362C352.37 104.986 352.832 104.49 353.088 103.875L355.498 104.567C355.037 105.575 354.267 106.404 353.191 107.054C352.131 107.686 350.892 108.002 349.473 108.002ZM345.448 100.106H353.55C353.481 99.3365 353.259 98.6614 352.883 98.0802C352.507 97.482 352.02 97.0205 351.422 96.6957C350.84 96.3539 350.191 96.183 349.473 96.183C348.772 96.183 348.123 96.3539 347.525 96.6957C346.943 97.0205 346.465 97.482 346.089 98.0802C345.713 98.6614 345.499 99.3365 345.448 100.106ZM370.669 107.746H367.849V100.234C367.849 98.969 367.644 98.0546 367.234 97.4905C366.84 96.9094 366.251 96.6188 365.464 96.6188C364.918 96.6188 364.371 96.7556 363.824 97.029C363.294 97.3025 362.815 97.6786 362.388 98.1571C361.961 98.6357 361.653 99.1741 361.465 99.7724V107.746H358.645V94.337H361.208V97.029C361.721 96.1402 362.465 95.4309 363.439 94.901C364.413 94.3712 365.49 94.1063 366.669 94.1063C367.729 94.1063 368.55 94.3626 369.131 94.8754C369.712 95.3711 370.114 96.0291 370.336 96.8496C370.558 97.67 370.669 98.5759 370.669 99.5673V107.746ZM381.303 107.054C380.944 107.225 380.449 107.421 379.816 107.643C379.184 107.849 378.509 107.951 377.791 107.951C376.902 107.951 376.133 107.712 375.483 107.233C374.851 106.755 374.535 105.977 374.535 104.9V96.5163H372.766V94.337H374.535V89.9272H377.355V94.337H380.278V96.5163H377.355V104.003C377.389 104.481 377.534 104.832 377.791 105.054C378.064 105.259 378.398 105.362 378.791 105.362C379.184 105.362 379.56 105.293 379.919 105.156C380.278 105.02 380.543 104.909 380.714 104.823L381.303 107.054ZM389.158 108.002C387.773 108.002 386.56 107.686 385.517 107.054C384.474 106.421 383.663 105.584 383.081 104.541C382.5 103.481 382.21 102.328 382.21 101.08C382.21 99.8151 382.5 98.6528 383.081 97.5931C383.663 96.5334 384.474 95.6873 385.517 95.0549C386.56 94.4225 387.782 94.1063 389.183 94.1063C390.585 94.1063 391.798 94.431 392.824 95.0805C393.85 95.7129 394.636 96.5505 395.183 97.5931C395.747 98.6357 396.029 99.7553 396.029 100.952C396.029 101.379 396.003 101.721 395.952 101.977H385.209C385.261 102.764 385.474 103.456 385.85 104.054C386.243 104.635 386.731 105.097 387.312 105.438C387.91 105.763 388.559 105.926 389.26 105.926C390.012 105.926 390.722 105.738 391.388 105.362C392.055 104.986 392.516 104.49 392.773 103.875L395.183 104.567C394.721 105.575 393.952 106.404 392.875 107.054C391.816 107.686 390.576 108.002 389.158 108.002ZM385.132 100.106H393.234C393.166 99.3365 392.944 98.6614 392.568 98.0802C392.192 97.482 391.704 97.0205 391.106 96.6957C390.525 96.3539 389.876 96.183 389.158 96.183C388.457 96.183 387.807 96.3539 387.209 96.6957C386.628 97.0205 386.149 97.482 385.773 98.0802C385.397 98.6614 385.184 99.3365 385.132 100.106Z" fill="#131313"/>
</svg>
